<svg xmlns="http://www.w3.org/2000/svg" xmlns:xlink="http://www.w3.org/1999/xlink" width="100" viewBox="0 0 75 74.999997" height="100" preserveAspectRatio="xMidYMid meet"><path fill="#FFFFFF" d="M 37.5 0 C 16.824219 0 0 16.824219 0 37.5 C 0 58.175781 16.824219 75 37.5 75 C 58.175781 75 75 58.175781 75 37.5 C 75 16.824219 58.175781 0 37.5 0 Z M 37.5 70 C 19.578125 70 5 55.421875 5 37.5 C 5 19.578125 19.578125 5 37.5 5 C 55.421875 5 70 19.578125 70 37.5 C 70 55.421875 55.421875 70 37.5 70 Z M 37.5 70 " fill-opacity="1" fill-rule="nonzero"></path><path fill="#FFFFFF" d="M 51.289062 20.503906 L 23.960938 20.503906 C 22.582031 20.503906 21.460938 21.625 21.460938 23.003906 C 21.460938 24.386719 22.582031 25.503906 23.960938 25.503906 L 51.289062 25.503906 C 52.667969 25.503906 53.789062 24.386719 53.789062 23.003906 C 53.789062 21.625 52.667969 20.503906 51.289062 20.503906 Z M 51.289062 20.503906 " fill-opacity="1" fill-rule="nonzero"></path><path fill="#FFFFFF" d="M 51.289062 35 L 23.960938 35 C 22.582031 35 21.460938 36.121094 21.460938 37.5 C 21.460938 38.878906 22.582031 40 23.960938 40 L 51.289062 40 C 52.667969 40 53.789062 38.878906 53.789062 37.5 C 53.789062 36.121094 52.667969 35 51.289062 35 Z M 51.289062 35 " fill-opacity="1" fill-rule="nonzero"></path><path fill="#FFFFFF" d="M 37.625 49.496094 L 23.960938 49.496094 C 22.582031 49.496094 21.460938 50.613281 21.460938 51.996094 C 21.460938 53.375 22.582031 54.496094 23.960938 54.496094 L 37.625 54.496094 C 39.003906 54.496094 40.125 53.375 40.125 51.996094 C 40.125 50.613281 39.003906 49.496094 37.625 49.496094 Z M 37.625 49.496094 " fill-opacity="1" fill-rule="nonzero"></path></svg>