<?xml version="1.0" encoding="UTF-8"?>
<svg id="Laag_2" data-name="Laag 2" xmlns="http://www.w3.org/2000/svg" viewBox="0 0 343.48 274">
  <g id="Layer_1" data-name="Layer 1">
    <g>
      <g>
        <path d="m343.37,165.55c.06-36.88.22-73.75-.01-110.62-.06-8.8-.6-17.21-3.9-25.49-3.06-7.7-8.09-14.68-14.8-19.54C307.76-2.36,285.18.43,265.57.27c-18.27-.15-36.56-.87-54.77.91-10.26,1.01-19.69,4.61-26.86,12.44-12.16,13.27-15.76,31.63-8.32,48.26,8.38,18.73,28.95,29.54,49.06,24.22,3.83-1.01,7.5-2.59,10.86-4.67,12.01-7.43,17.76-18.72,20.94-31.85,2.43-10.03,4.66-20.86,11.25-29.13,6.13-7.69,15.72-12.76,25.35-14.28,13.07-2.06,26.84,3.66,35.38,13.63,12.21,14.27,13.14,36.91,1.65,51.85-5.86,7.61-14.41,12.71-23.72,14.87-8.87,2.05-17.96,2.13-26.98,2.35-21.28.52-42.58.26-63.84,1.73-21.3,1.47-35.78,12.61-42,32.91-7.15,23.34,7.52,50.04,30.9,56.22,4.23,1.12,8.61,1.67,12.98,1.56,4.17-.1,8.33-.8,12.3-2.09,3.91-1.27,7.62-3.11,11.01-5.44,3.44-2.37,6.53-5.24,9.17-8.47,2.77-3.39,5.05-7.17,6.8-11.18,1.12-2.55,2.03-5.17,2.61-7.88.05-.25.12-.5.3-.68.11-.12,1.41-.52,1.41-.32,0,1.72.37,11.3,0,20.33-.14,3.47-.14,6.51-.08,8.91.03,1.48,1.24,2.65,2.72,2.65h37.31c6.79.07,13.63.11,20.54.11,6.48,0,12.9-.03,19.27-.09,1.49-.01,2.69-1.23,2.69-2.72v-8.87h-.11Z" style="fill: #fff;"/>
        <path d="m118.8,95.21c-3.83,1.01-7.5,2.59-10.86,4.67-12.01,7.43-17.76,18.72-20.94,31.85-2.43,10.03-4.66,20.86-11.25,29.13-6.13,7.69-15.72,12.76-25.35,14.28-13.07,2.06-26.84-3.66-35.38-13.63-12.21-14.27-13.14-36.91-1.65-51.85,5.86-7.61,14.41-12.71,23.72-14.87,8.87-2.05,17.96-2.13,26.98-2.35,21.28-.52,42.58-.26,63.84-1.73,21.3-1.47,35.78-12.61,42-32.91,7.15-23.34-7.52-50.04-30.9-56.22C135.1.54,131.05,0,127,0h0s-71.66,0-71.66,0C25.18,0,.78,24.51.91,54.66c.14,33.82-.02,58.52-.78,71.73-.23,4.03-.63,13.97,3.82,25.29,2.84,7.22,7.29,13.76,13.36,18.59,17.06,13.58,40.41,10.62,60.61,10.78,18.27.15,36.56.87,54.77-.91,10.26-1.01,19.69-4.61,26.86-12.44,12.16-13.27,15.76-31.63,8.32-48.26-8.38-18.73-28.95-29.54-49.06-24.22Z" style="fill: #fff;"/>
      </g>
      <g>
        <path d="m81.94,249.53c0-5.01,3.89-8.26,8.79-8.26,2.48,0,5.13.88,7.19,2.54v-.12c0-4.36-1.24-8.14-5.6-8.14-2.12,0-4.48.24-6.6,2.36l-.65-.65c2.3-2.3,4.89-2.59,7.25-2.59,7.66,0,11.85,3.12,11.85,9.02v13.97h-6.25v-2.24c-1.95,1.47-4.3,2.24-6.66,2.24-4.78,0-9.32-3.07-9.32-8.14Zm6.25,0c0,5.25,5.13,9.02,9.73,4.72v-9.26c-4.78-4.42-9.73-.71-9.73,4.54Z" style="fill: #fff;"/>
        <path d="m115.49,253.3c-1.89-2-3.01-4.54-3.01-7.37,0-6.13,5.07-11.09,12.09-11.09,1.24,0,2.42.18,3.54.47,1.42-2.18,3.01-3.77,4.72-5.25l5.6,4.54c-3.6-.94-6.84-1.77-9.32,1,4.6,1.59,7.61,5.6,7.61,10.32,0,6.07-5.07,11.03-12.15,11.03-3.36,0-6.31-1.18-8.43-3.01-1.06.71-1.95,1.89-1.95,3.07,0,3.18,6.9,1.06,13.8,1.06,7.96,0,9.97,3.89,9.85,7.72-.18,5.78-3.83,7.02-8.37,7.02-6.37-.06-14.39-2.71-16.22,1.18,0-6.31,4.95-7.72,10.32-7.72,6.25.06,12.97,2,12.97.29,0-2.54-4.54-2.24-8.55-2.24-10.79,0-14.74-1.3-14.74-7.31,0-1.65,1-2.95,2.24-3.71Zm3.24-7.37c0,5.6,2.3,10.14,5.84,10.14s5.9-4.54,5.9-10.14-2.3-10.14-5.9-10.14-5.84,4.54-5.84,10.14Z" style="fill: #fff;"/>
        <path d="m145.03,246.29c0-6.31,3.95-11.44,12.21-11.44s12.03,4.89,12.2,10.97v.94h-18.16c.29,9.91,9.2,12.56,16.16,5.66l.65.65c-3.24,3.18-6.25,4.6-10.85,4.6-6.9,0-12.21-5.07-12.21-11.38Zm6.25-.47h11.91c-.06-5.54-1.47-10.02-5.95-10.02s-5.9,4.48-5.96,10.02Z" style="fill: #fff;"/>
        <path d="m183.89,257.67h-6.25v-22.82h6.25v3.54c1-2.12,3.01-3.54,6.84-3.54,7.9,0,10.79,3.72,10.79,8.84v13.97h-6.25v-13.97c0-4.07-1.65-7.9-5.66-7.9s-5.72,4.13-5.72,7.9v13.97Z" style="fill: #fff;"/>
        <path d="m215.85,246.29c0,7.14,3.65,10.08,8.08,10.14,3.01,0,6.31-1.06,9.32-4.01l.65.65c-3.24,3.18-6.25,4.6-10.85,4.6-8.25,0-13.44-5.07-13.44-11.38s5.19-11.44,13.44-11.44c4.54,0,8.14,1.59,10.5,4.01l-4.07,2.42c-1.06-3.3-3.3-5.48-6.43-5.48-4.6,0-7.19,4.72-7.19,10.5Z" style="fill: #fff;"/>
        <path d="m241.49,248.88v-14.03h6.25v14.03c0,4.07.83,7.9,4.19,7.9,1.47,0,2.59-.83,3.3-2.06v-19.87h6.31v22.82c0,8.31-5.36,10.85-13.21,10.85-.94,0-1.89-.12-2.89-.35l.41-1.06c.94.35,1.89.53,2.65.53,3.24-.06,6.72-1.65,6.72-9.97v-1.59c-.94,1-2.36,1.59-4.25,1.59-6.6,0-9.49-3.66-9.49-8.79Z" style="fill: #fff;"/>
      </g>
    </g>
  </g>
</svg>